<svg xmlns="http://www.w3.org/2000/svg" viewBox="0 0 200 40" fill="currentColor">
  <g>
    <path d="M80.39,24.36H82v2.07H80.39Z"/>
    <g>
      <path d="M184.5,18.09a3,3,0,0,0-2.88,0q0-.32,0-.64h0v0c0-1.15-1.76-2.16-4.46-2.79,1.69.55,2.74,1.31,2.74,2.14,0,1.69-4.29,3.06-9.57,3.06s-9.57-1.37-9.57-3.06a1.16,1.16,0,0,1,.23-.67,1.74,1.74,0,0,0-.81,1.31c0,1.9,4.8,3.43,10.73,3.43,3.91,0,7.33-.67,9.21-1.67a13.59,13.59,0,0,1-3.92,8.31,9.38,9.38,0,0,1-6.56,2.82,8.73,8.73,0,0,1-3.4-.69,8.91,8.91,0,0,0,4.67,1.34c5.11,0,9.39-4.5,10.46-10.53a1.58,1.58,0,0,1,2-1.25,1.09,1.09,0,0,1,.81,1c.3,2.8-3.52,6.07-3.52,6.07C184.45,24.46,186.64,19.42,184.5,18.09Z"/>
      <path d="M170.24,15.4c.38-1,.57-2.07-1.33-3.49-4.26-3.18-3.29-5.55-3.19-6a4.26,4.26,0,0,1,2.91-3A4,4,0,0,0,166.55,7a5.24,5.24,0,0,0,1,2.08c.42.55,1.06,1.31,2,2.35C171.84,13.86,170.24,15.4,170.24,15.4Z"/>
      <path d="M169.56,4.45s-1.75,1.29.58,3.84c2.09,2.3,3.44,4,3.23,5.38s-.28,2.31-3.45,3c0,0,2.64.47,3.86-1.45,0,0,1.79-2.67-1.09-5.61C170.26,7.15,168.59,6.2,169.56,4.45Z"/>
      <path d="M161.3,18a1.18,1.18,0,0,1-.36-.32,4.62,4.62,0,0,0-.75-.06,1.7,1.7,0,0,1,0,.17c0,4.55,1.87,8.58,4.78,10.79A15.73,15.73,0,0,1,161.3,18Z"/>
      <path d="M177.8,29.88c1.14.4,1.81.87,1.81,1.39,0,1.36-4.7,2.47-10.49,2.47a34.56,34.56,0,0,1-7.22-.68,29.17,29.17,0,0,0,8.68,1.08c5.79,0,10.49-1.11,10.49-2.47C181.07,31,179.81,30.33,177.8,29.88Z"/>
    </g>
    <g>
      <path d="M16.08,12.63c7.22,0,8.35,4.29,8.35,7.09s-1.13,7.09-8.35,7.09-8.35-4.29-8.35-7.09S8.86,12.63,16.08,12.63Zm0,11.62a4.23,4.23,0,0,0,4.47-4.53,4.23,4.23,0,0,0-4.47-4.53,4.23,4.23,0,0,0-4.47,4.53A4.23,4.23,0,0,0,16.08,24.24Z"/>
      <path d="M34.45,20.71c0-1.39-.73-2.07-2.22-2.07a2.6,2.6,0,0,0-2.84,2.91v4.87H26.08V16.35h3.2v1.47h0a5.26,5.26,0,0,1,4.12-1.73c1.71,0,4.32.66,4.32,3.63v6.71H34.45Z"/>
      <path d="M40,12.78h3.31V26.42H40Z"/>
      <path d="M45.58,12.78h3.31v2.33H45.58Zm0,3.57h3.31V26.42H45.58Z"/>
      <path d="M59.51,20.71c0-1.39-.73-2.07-2.22-2.07a2.6,2.6,0,0,0-2.84,2.91v4.87H51.15V16.35h3.2v1.47h0a5.26,5.26,0,0,1,4.12-1.73c1.71,0,4.32.66,4.32,3.63v6.71H59.51Z"/>
      <path d="M74.48,16.35h3.2v9.27c0,3.48-2.26,4.81-6.47,4.81-2.48,0-5.85-.28-6.18-3.33h3.53c.21.83.85,1.26,2.76,1.26,1.64,0,3-.43,3-2.88v-.81a5.16,5.16,0,0,1-4,1.48c-3.95,0-5.73-2.44-5.73-5,0-2.74,1.79-5,6-5a4.86,4.86,0,0,1,3.83,1.48h0Zm-3.29,7.59c1.47,0,3.18-.45,3.18-2.76s-1.71-2.76-3.18-2.76S68,18.87,68,21.18,69.74,23.94,71.19,23.94Z"/>
    </g>
    <g>
      <path d="M98.36,21.31c-.3,3-2.78,5.45-6.64,5.45-4.36,0-7.14-2.74-7.14-7a6.77,6.77,0,0,1,7.14-7c2.93,0,6.11,1.33,6.52,4.87H96.86c-.41-2.56-2.71-3.59-5.13-3.59-3.33,0-5.64,1.86-5.64,5.77,0,3,1.56,5.77,5.64,5.77,3.2,0,4.77-1.62,5.24-4.17Z"/>
      <path d="M105.42,16.35c3.76,0,5.55,2.46,5.55,5.19s-1.79,5.19-5.55,5.19-5.55-2.46-5.55-5.19S101.66,16.35,105.42,16.35Zm0,9.21a3.83,3.83,0,0,0,4.15-4,4.16,4.16,0,0,0-8.31,0A3.83,3.83,0,0,0,105.42,25.56Z"/>
      <path d="M121.77,24.47h0a4.26,4.26,0,0,1-4,2.26c-4,0-5.32-2.8-5.32-5.19a4.92,4.92,0,0,1,5.32-5.19,4.45,4.45,0,0,1,4,2.26h0V12.89h1.39V26.42h-1.39Zm-4-7a3.8,3.8,0,0,0-3.93,4,3.73,3.73,0,0,0,3.93,4,3.84,3.84,0,0,0,4.1-4A3.84,3.84,0,0,0,117.75,17.51Z"/>
      <path d="M125.27,12.89h1.39V15h-1.39Zm0,3.76h1.39v9.78h-1.39Z"/>
      <path d="M137.08,20.13c0-1.94-1.18-2.61-3-2.61-2.73,0-4,1.39-4,3.61v5.3h-1.39V16.65h1.39v1.92h0a4.28,4.28,0,0,1,4-2.22c3.25,0,4.23,1.69,4.23,4v6.05h-1.39Z"/>
      <path d="M149.66,16.65h1.39V26c0,3.61-2.91,4.51-5.49,4.51-4.46,0-4.89-2.12-5-3.18h1.28c.21,1.05.49,2.12,3.78,2.12,2.56,0,4-1.2,4-3.55V24.21h0a4.56,4.56,0,0,1-4.32,2.22c-2.48,0-5.19-1.28-5.19-5.09,0-2.59,1.65-5,5.34-5,1.9,0,3.52.71,4.17,2.2h0Zm-4.14.86c-2.44,0-4,1.41-4,3.82,0,2.86,1.79,3.93,4.14,3.93a3.78,3.78,0,0,0,4.06-3.93C149.7,19.28,148.29,17.51,145.52,17.51Z"/>
      <path d="M158.07,13a13.68,13.68,0,0,0-3,8.5,13.68,13.68,0,0,0,3,8.5H157a13.44,13.44,0,0,1-3.38-8.5A13.44,13.44,0,0,1,157,13Z"/>
      <path d="M185.48,30a13.68,13.68,0,0,0,3-8.5,13.68,13.68,0,0,0-3-8.5h1.05a13.44,13.44,0,0,1,3.38,8.5,13.44,13.44,0,0,1-3.38,8.5Z"/>
    </g>
  </g>
</svg>
