<svg xmlns="http://www.w3.org/2000/svg" viewBox="0 0 128 128" fill="currentColor">
  <g>
    <path d="M105.52,62.49c-3.73-2.31-7.76-1.2-10.19-.1q0-1.13,0-2.26h0s0-.09,0-.13c0-4.06-6.22-7.65-15.78-9.85,6,2,9.67,4.63,9.67,7.58,0,6-15.16,10.83-33.85,10.83S21.56,63.7,21.56,57.72a4.12,4.12,0,0,1,.82-2.37c-1.85,1.43-2.88,3-2.88,4.64,0,6.7,17,12.14,37.94,12.14,13.83,0,25.93-2.37,32.56-5.91-1.38,12-6.51,22.43-13.85,29.4-6.42,6.26-14.47,10-23.21,10a30.87,30.87,0,0,1-12-2.45,31.52,31.52,0,0,0,16.51,4.75c18.07,0,33.19-15.91,37-37.22a5.57,5.57,0,0,1,7-4.41,3.86,3.86,0,0,1,2.88,3.62c1.06,9.92-12.46,21.46-12.46,21.46C105.37,85,113.11,67.18,105.52,62.49Z" fill="currentColor"/>
    <path d="M23.5,62.28a4.16,4.16,0,0,1-1.28-1.13,16.33,16.33,0,0,0-2.66-.2,6,6,0,0,1,0,.61c.16,16.08,6.61,30.32,16.91,38.16C28.21,90.56,23.46,77.08,23.5,62.28Z" fill="currentColor"/>
    <path d="M81.84,104.18c4,1.4,6.38,3.08,6.38,4.9,0,4.82-16.61,8.73-37.09,8.73a122.22,122.22,0,0,1-25.53-2.4c6.67,2.31,17.93,3.83,30.7,3.83,20.48,0,37.09-3.91,37.09-8.73C93.39,108,89,105.77,81.84,104.18Z" fill="currentColor"/>
    <g>
      <path d="M52.79,14.21l-.09.12a3.53,3.53,0,0,0-.26.36,4.79,4.79,0,0,0-.65,1.51c0,.17-.07.36-.11.54s0,.39-.05.61a6.54,6.54,0,0,0,.09,1.36,6.92,6.92,0,0,0,.42,1.47A9.06,9.06,0,0,0,53,21.7a18.41,18.41,0,0,0,2.67,3.07c1.09,1.05,2.31,2.15,3.59,3.34s2.64,2.47,4,3.92a28.82,28.82,0,0,1,3.72,5,19,19,0,0,1,2.3,6c.1.52.17,1,.21,1.56l0,.19v.2l0,.39c0,.26,0,.52,0,.78a13.58,13.58,0,0,1-.42,3A11.88,11.88,0,0,1,66.5,54l-.45.48-.47.43a6.25,6.25,0,0,1-.49.4l-.25.19-.25.17-.51.32-.51.27a10.76,10.76,0,0,1-1,.44,14.86,14.86,0,0,1-1.91.56c-.6.14-1.17.24-1.69.33a17.86,17.86,0,0,1-2.74.29,7.71,7.71,0,0,1-1.74-.16L54,57.6l-.15,0h.59a8.26,8.26,0,0,0,1.66-.24,20.76,20.76,0,0,0,2.51-.83,21.05,21.05,0,0,0,3.13-1.42c.27-.15.52-.32.78-.5l.37-.28.35-.31c.06-.05.12-.1.18-.16l.17-.17a4.57,4.57,0,0,0,.33-.36l.31-.38.29-.41a10.08,10.08,0,0,0,1.52-4,11.72,11.72,0,0,0,.13-2.34c0-.2,0-.4,0-.6l0-.3,0-.15,0-.15c-.06-.41-.14-.81-.24-1.22a18.52,18.52,0,0,0-2-4.89,33.83,33.83,0,0,0-3.21-4.51c-1.17-1.41-2.38-2.75-3.54-4.05s-2.27-2.57-3.26-3.83a17.84,17.84,0,0,1-2.42-3.87,9.93,9.93,0,0,1-.63-1.95,7.76,7.76,0,0,1-.16-1.83,7.09,7.09,0,0,1,.23-1.55,6.86,6.86,0,0,1,.21-.66,6.17,6.17,0,0,1,.25-.57,4.81,4.81,0,0,1,1.05-1.41,3.35,3.35,0,0,1,.35-.29Z" fill="currentColor"/>
      <path d="M55.11,53l.06-.13c0-.08.1-.2.17-.37A7.25,7.25,0,0,0,55.76,51a9.28,9.28,0,0,0,.08-2.38c0-.23-.06-.46-.09-.7s0-.24-.07-.36l0-.18,0-.18a6.8,6.8,0,0,0-.53-1.47c0-.06-.05-.12-.09-.18l-.1-.17-.1-.17-.12-.18-.12-.18-.13-.18-.13-.18-.14-.18a15.89,15.89,0,0,0-1.29-1.43C51.87,42,50.72,41,49.48,40S47,37.82,45.65,36.58a29.67,29.67,0,0,1-3.79-4.29l-.42-.63-.21-.31L41,31l-.38-.65-.34-.67-.17-.33L40,29l-.29-.69c-.09-.23-.16-.47-.24-.7s-.16-.46-.22-.7c-.12-.47-.25-.94-.33-1.42,0-.24-.08-.48-.11-.71s-.05-.47-.07-.71a14.86,14.86,0,0,1,0-2.75,15.11,15.11,0,0,1,.49-2.54,16,16,0,0,1,.84-2.26,14.84,14.84,0,0,1,1.08-2c.19-.3.4-.58.6-.86s.41-.53.63-.77A13.72,13.72,0,0,1,45,10.63a12,12,0,0,1,2.26-1.24l.24-.1.23-.08.41-.14.65-.19.54-.12L48.83,9l-.57.34-.35.24-.19.13-.2.15a12.91,12.91,0,0,0-1.79,1.62A14.18,14.18,0,0,0,43.89,14c-.15.24-.28.51-.42.77s-.27.54-.39.83a14.53,14.53,0,0,0-.65,1.81,15.66,15.66,0,0,0-.44,2,14.18,14.18,0,0,0-.16,2.12A13.61,13.61,0,0,0,42,23.72a12.93,12.93,0,0,0,.56,2.2c.05.19.13.37.2.55L43,27l.25.54.13.27.14.27.29.54.32.53.16.27.18.26.35.53a71.34,71.34,0,0,0,6.76,7.53,40.1,40.1,0,0,1,3.12,3.53,15.83,15.83,0,0,1,1.22,1.87l.13.24.12.24.12.24.11.24.1.24.1.26.09.25c0,.08,0,.17.07.25A7.91,7.91,0,0,1,57,47v.44c0,.14,0,.28,0,.42s0,.54-.07.8a9.14,9.14,0,0,1-.68,2.51,6.79,6.79,0,0,1-.82,1.4c-.11.14-.21.24-.27.31Z" fill="currentColor"/>
    </g>
  </g>
</svg>
